<svg width="577" height="176" viewBox="0 0 577 176" fill="none" xmlns="http://www.w3.org/2000/svg">
<path d="M0 100L92 154L66 176L0 100Z" fill="#306699"/>
<path d="M48 130L92 154L66 176L48 130Z" fill="#294F7F"/>
<path d="M88 0L150.913 66H50L88 0Z" fill="#DFECF3"/>
<path d="M60 16L110 66H24L60 16Z" fill="#8CB9D5"/>
<path d="M24 66H150.812L176 92L116 172L0 100L24 66Z" fill="#306699"/>
<path d="M24 66H54.6875L48 130L0 100L24 66Z" fill="#3C72A5"/>
<path d="M116 120L176 92L116 172V120Z" fill="#294F7F"/>
<path d="M176 92L116 120L85.9999 66H150.875L176 92Z" fill="#3C72A5"/>
<path d="M59.9999 16L54.703 66H24L59.9999 16Z" fill="#DFECF3"/>
<path d="M88 0L150.865 66H110L88 0Z" fill="#8CB9D5"/>
<path d="M269.146 51.904H246.106L232.538 94.016L216.666 51.904H193.242L221.53 120C221.53 124.736 219.994 127.552 217.05 128.32C215.514 128.832 213.082 129.472 209.626 129.472H208.218C206.17 129.472 204.25 129.344 202.33 129.216V146.752C205.018 146.88 207.962 147.008 211.034 147.008C217.69 147.008 223.066 146.112 227.674 144.192C238.554 139.072 242.138 127.936 244.954 120C246.362 116.16 252.378 98.88 258.138 83.008C261.465 73.664 265.178 63.296 269.146 51.904Z" fill="#8CB9D5"/>
<path d="M333.911 60.224C330.967 53.952 323.543 50.752 311.383 50.752C307.927 50.752 302.039 51.392 296.279 53.312V20.416L275.286 24.128V118.08C285.399 120 294.615 120.896 303.191 120.896C315.607 120.896 324.311 118.464 329.431 113.728C331.863 111.296 333.399 109.12 333.911 107.456C335.575 104.768 336.343 97.856 336.343 86.848V80.064C336.343 69.568 335.575 62.912 333.911 60.224ZM315.223 76.224V93.632C315.223 95.296 315.095 96.576 314.711 97.728C313.687 101.696 310.103 103.616 304.087 103.616H302.423L296.279 103.232V71.36C299.479 69.44 302.807 68.544 306.135 68.544H307.543H309.335C313.303 69.44 315.223 72 315.223 76.224ZM363.478 26.944C361.558 25.024 358.102 24.768 355.158 24.768C352.214 24.768 348.885 25.024 346.454 26.944C344.406 28.864 344.15 32.448 344.15 34.624C344.15 37.056 344.406 40.256 346.454 42.176C348.885 44.096 352.598 44.352 355.158 44.352C357.59 44.352 361.558 44.096 363.478 42.176C365.91 40.256 366.166 37.184 366.166 34.624C366.166 32.192 365.91 28.864 363.478 26.944ZM344.534 51.904H365.654V120H344.534V51.904ZM435.354 118.336V51.52H417.947C417.819 52.032 417.691 52.544 417.563 52.928C417.179 53.824 417.051 54.848 417.051 55.872C410.267 52.16 400.155 48.96 388.763 52.032C380.955 54.464 378.01 60.352 376.603 63.552C374.683 67.776 374.043 73.28 374.043 84.16V90.944C374.043 101.568 374.939 108.224 376.603 110.656C379.547 116.928 386.971 120.128 399.131 120.128C403.611 120.128 407.451 119.616 410.139 118.976C411.675 118.592 413.083 118.208 414.363 117.696V120C414.363 124.48 412.827 127.168 409.883 128.32C408.219 128.96 405.787 129.344 402.331 129.344H400.667C393.627 129.344 386.075 128.704 377.755 127.04L377.627 127.168V144.064C377.627 144.32 381.211 144.96 388.378 146.112C392.731 146.624 397.851 146.88 403.611 146.88C418.715 146.88 428.443 141.76 432.923 131.52C434.075 128.576 434.843 125.504 435.227 122.432V120C435.227 119.488 435.227 118.976 435.354 118.336ZM414.363 71.488V99.52C410.907 101.568 407.451 102.592 404.251 102.592H402.971L401.307 102.336C397.211 101.568 395.163 99.008 395.163 94.656V78.4C395.163 76.992 395.419 75.712 395.803 74.432C396.955 70.336 400.539 68.672 406.299 69.44C406.939 69.568 407.707 69.696 408.603 69.824C410.011 70.208 411.931 70.592 414.363 71.488Z" fill="#316DB2"/>
<path d="M491.522 104.896C490.882 104.896 484.226 104.512 480.514 102.848C475.906 101.44 475.906 97.984 475.906 93.504V69.312V88.768V69.312H489.73L491.906 51.776H475.906V31.168L454.914 34.752V51.776H444.674V69.312H454.914V82.368C454.914 89.024 455.042 95.936 455.042 96.32C455.042 121.536 471.554 120.256 486.53 120.256H491.522V104.896ZM555.315 61.888C552.115 55.232 543.795 51.904 530.354 51.904H509.235L507.315 69.312H527.027C530.739 69.312 533.427 69.824 534.963 70.976C536.371 71.744 537.011 74.432 537.011 79.168V81.472H527.155C517.555 81.472 511.539 82.24 509.107 83.904C503.347 86.592 500.403 91.968 500.403 100.288V100.8C500.403 105.536 501.683 109.76 504.115 113.472C507.827 118.336 512.819 120.768 519.091 120.768H520.883C527.411 120.768 533.555 118.976 539.699 115.776C539.827 116.8 539.955 117.824 540.339 118.72C540.467 119.104 540.595 119.616 540.723 120H558.131V78.016C558.131 71.232 557.235 65.856 555.315 61.888ZM537.011 95.424V103.104C533.299 104.768 529.971 105.92 527.283 105.92C523.443 105.92 521.523 104 521.523 100.288C521.523 98.496 521.907 97.344 522.547 96.704C523.443 95.808 525.875 95.424 529.971 95.424H537.011Z" fill="#294F7F"/>
</svg>
